<?xml version="1.0" encoding="UTF-8" standalone="no"?>
<!-- Created with Inkscape (http://www.inkscape.org/) -->

<svg
   width="210mm"
   height="297mm"
   viewBox="0 0 210 297"
   version="1.1"
   id="svg14886"
   inkscape:version="1.1.2 (0a00cf5339, 2022-02-04)"
   sodipodi:docname="tower.svg"
   xmlns:inkscape="http://www.inkscape.org/namespaces/inkscape"
   xmlns:sodipodi="http://sodipodi.sourceforge.net/DTD/sodipodi-0.dtd"
   xmlns="http://www.w3.org/2000/svg"
   xmlns:svg="http://www.w3.org/2000/svg">
  <sodipodi:namedview
     id="namedview14888"
     pagecolor="#ffffff"
     bordercolor="#666666"
     borderopacity="1.0"
     inkscape:pageshadow="2"
     inkscape:pageopacity="0.0"
     inkscape:pagecheckerboard="0"
     inkscape:document-units="mm"
     showgrid="true"
     inkscape:snap-global="false"
     inkscape:zoom="1"
     inkscape:cx="756.5"
     inkscape:cy="557.5"
     inkscape:window-width="1920"
     inkscape:window-height="1056"
     inkscape:window-x="1920"
     inkscape:window-y="1080"
     inkscape:window-maximized="1"
     inkscape:current-layer="layer1">
    <inkscape:grid
       type="xygrid"
       id="grid14890" />
  </sodipodi:namedview>
  <defs
     id="defs14883" />
  <g
     inkscape:label="Layer 1"
     inkscape:groupmode="layer"
     id="layer1">
    <rect
       style="fill:#cecac5;stroke-width:0.419775"
       id="rect14914"
       width="29.130711"
       height="60.252872"
       x="138.95148"
       y="147.35701"
       transform="matrix(0.89442701,-0.44721395,0,1,0,0)" />
    <rect
       style="fill:#f3f2f1;stroke-width:0.419775"
       id="rect14914-9"
       width="29.130705"
       height="60.252872"
       x="109.82073"
       y="23.074986"
       transform="matrix(0.89442718,0.44721361,0,1,0,0)" />
    <rect
       style="fill:#3485fd;stroke-width:0.43932"
       id="rect15108"
       width="29.340555"
       height="29.340555"
       x="-23.196447"
       y="133.8083"
       transform="matrix(0.88802998,-0.45978555,0.88802998,0.45978555,0,0)" />
    <rect
       style="fill:#cecac5;stroke-width:0.419775"
       id="rect14914-4"
       width="29.130711"
       height="60.252872"
       x="168.10562"
       y="191.25833"
       transform="matrix(0.89442701,-0.44721395,0,1,0,0)" />
    <rect
       style="fill:#f3f2f1;stroke-width:0.419775"
       id="rect14914-9-7"
       width="29.130705"
       height="60.252872"
       x="138.97488"
       y="40.900047"
       transform="matrix(0.89442718,0.44721361,0,1,0,0)" />
    <rect
       style="fill:#6610f2;stroke-width:0.43932"
       id="rect15108-8"
       width="29.340555"
       height="29.340555"
       x="-42.076965"
       y="182.05299"
       transform="matrix(0.88802998,-0.45978555,0.88802998,0.45978555,0,0)" />
    <rect
       style="fill:#cecac5;stroke-width:0.419775"
       id="rect14914-4-4"
       width="29.130711"
       height="60.252872"
       x="109.9015"
       y="172.84518"
       transform="matrix(0.89442701,-0.44721395,0,1,0,0)" />
    <rect
       style="fill:#f3f2f1;stroke-width:0.419775"
       id="rect14914-9-7-5"
       width="29.130705"
       height="60.252872"
       x="80.770767"
       y="74.546173"
       transform="matrix(0.89442718,0.44721361,0,1,0,0)" />
    <rect
       style="fill:#8660cb;stroke-width:0.43932"
       id="rect15108-8-0"
       width="29.340555"
       height="29.340555"
       x="-79.671318"
       y="161.02385"
       transform="matrix(0.88802998,-0.45978555,0.88802998,0.45978555,0,0)" />
    <rect
       style="fill:#cecac5;stroke-width:0.419775"
       id="rect14914-4-3"
       width="29.130711"
       height="60.252872"
       x="139.01764"
       y="211.51161"
       transform="matrix(0.89442701,-0.44721395,0,1,0,0)" />
    <rect
       style="fill:#f3f2f1;stroke-width:0.419775"
       id="rect14914-9-7-6"
       width="29.130705"
       height="60.252872"
       x="109.88689"
       y="87.17028"
       transform="matrix(0.89442718,0.44721361,0,1,0,0)" />
    <rect
       style="fill:#d63384;stroke-width:0.43932"
       id="rect15108-8-1"
       width="29.340555"
       height="29.340555"
       x="-92.896637"
       y="203.57509"
       transform="matrix(0.88802998,-0.45978555,0.88802998,0.45978555,0,0)" />
    <rect
       style="fill:#cecac5;stroke-width:0.419775"
       id="rect14914-4-0"
       width="29.130711"
       height="60.252872"
       x="167.93822"
       y="251.58214"
       transform="matrix(0.89442701,-0.44721395,0,1,0,0)" />
    <rect
       style="fill:#f3f2f1;stroke-width:0.419775"
       id="rect14914-9-7-63"
       width="29.130705"
       height="60.252872"
       x="138.80748"
       y="101.37352"
       transform="matrix(0.89442718,0.44721361,0,1,0,0)" />
    <rect
       style="fill:#dc3545;stroke-width:0.43932"
       id="rect15108-8-2"
       width="29.340555"
       height="29.340555"
       x="-107.84264"
       y="247.64995"
       transform="matrix(0.88802998,-0.45978555,0.88802998,0.45978555,0,0)" />
    <rect
       style="fill:#cecac5;stroke-width:0.419775"
       id="rect14914-4-0-5"
       width="29.127857"
       height="55.041271"
       x="109.94195"
       y="230.75409"
       transform="matrix(0.89442701,-0.44721395,0,1,0,0)" />
    <rect
       style="fill:#f3f2f1;stroke-width:0.419775"
       id="rect14914-9-7-63-5"
       width="29.15077"
       height="55.047195"
       x="80.811241"
       y="132.41896"
       transform="matrix(0.89442718,0.44721361,0,1,0,0)" />
    <rect
       style="fill:#fd933a;stroke-width:0.43932"
       id="rect15108-8-2-4"
       width="29.340555"
       height="29.340555"
       x="-142.60487"
       y="223.99825"
       transform="matrix(0.88802998,-0.45978555,0.88802998,0.45978555,0,0)" />
    <rect
       style="fill:#cecac5;stroke-width:0.419775"
       id="rect14914-4-0-5-6"
       width="29.102308"
       height="40.262154"
       x="139.04199"
       y="271.58856"
       transform="matrix(0.89442701,-0.44721395,0,1,0,0)" />
    <rect
       style="fill:#f3f2f1;stroke-width:0.419775"
       id="rect14914-9-7-63-5-9"
       width="29.129547"
       height="40.059338"
       x="109.91128"
       y="147.22583"
       transform="matrix(0.89442718,0.44721361,0,1,0,0)" />
    <rect
       style="fill:#ffcb2f;stroke-width:0.43932"
       id="rect15108-8-2-4-3"
       width="29.340555"
       height="29.340555"
       x="-158.20416"
       y="268.90756"
       transform="matrix(0.88802998,-0.45978555,0.88802998,0.45978555,0,0)" />
  </g>
</svg>
